<svg xmlns="http://www.w3.org/2000/svg" width="128" height="128" viewBox="0 0 128 128">
  <title>Map</title>
  <path d="M95,4.25H33A9.761,9.761,0,0,0,23.25,14V114A9.761,9.761,0,0,0,33,123.75H95a9.761,9.761,0,0,0,9.75-9.75V14A9.761,9.761,0,0,0,95,4.25ZM101.25,114A6.257,6.257,0,0,1,95,120.25H33A6.257,6.257,0,0,1,26.75,114V14A6.257,6.257,0,0,1,33,7.75H95A6.257,6.257,0,0,1,101.25,14Z" fill="#33ff9c"/>
  <path d="M90,15.105H38a5.757,5.757,0,0,0-5.75,5.75V89.679A5.757,5.757,0,0,0,38,95.429H90a5.757,5.757,0,0,0,5.75-5.75V20.855A5.757,5.757,0,0,0,90,15.105Zm2.25,74.574A2.253,2.253,0,0,1,90,91.929H38a2.253,2.253,0,0,1-2.25-2.25V20.855A2.253,2.253,0,0,1,38,18.605H90a2.253,2.253,0,0,1,2.25,2.25Z" fill="#33ff9c"/>
  <path d="M64,100.052a8.25,8.25,0,1,0,8.25,8.25A8.259,8.259,0,0,0,64,100.052Zm0,13a4.75,4.75,0,1,1,4.75-4.75A4.756,4.756,0,0,1,64,113.052Z" fill="#33ff9c"/>
  <path d="M64,28.43A19.341,19.341,0,0,0,44.681,47.749c0,18.192,17.44,33.3,18.182,33.937a1.752,1.752,0,0,0,2.274,0c.742-.634,18.182-15.745,18.182-33.937A19.341,19.341,0,0,0,64,28.43Zm0,49.549c-3.8-3.63-15.819-16.214-15.819-30.23a15.819,15.819,0,0,1,31.638,0C79.819,61.765,67.8,74.349,64,77.979Z" fill="#33ff9c"/>
  <path d="M64,38.215a9.117,9.117,0,1,0,9.117,9.117A9.127,9.127,0,0,0,64,38.215Zm0,14.733a5.617,5.617,0,1,1,5.617-5.616A5.623,5.623,0,0,1,64,52.948Z" fill="#33ff9c"/>
</svg>